<svg width="513" height="512" viewBox="0 0 513 512" fill="none" xmlns="http://www.w3.org/2000/svg">
<g clip-path="url(#clip0_213_2)">
<mask id="mask0_213_2" style="mask-type:luminance" maskUnits="userSpaceOnUse" x="0" y="0" width="513" height="512">
<path d="M512.5 0H0.5V512H512.5V0Z" fill="white"/>
</mask>
<g mask="url(#mask0_213_2)">
<path d="M256.5 46.1227C324.852 46.1227 332.959 46.3787 359.945 47.616C387.849 48.896 416.585 55.2533 436.916 75.584C457.439 96.1067 463.604 124.565 464.884 152.555C466.121 179.541 466.377 187.648 466.377 256C466.377 324.352 466.121 332.459 464.884 359.445C463.625 387.2 457.119 416.213 436.916 436.416C416.393 456.939 387.956 463.104 359.945 464.384C332.959 465.621 324.852 465.877 256.5 465.877C188.148 465.877 180.041 465.621 153.055 464.384C125.513 463.125 96.116 456.469 76.084 436.416C55.668 416 49.396 387.264 48.116 359.445C46.8787 332.459 46.6227 324.352 46.6227 256C46.6227 187.648 46.8787 179.541 48.116 152.555C49.3747 124.907 55.9453 95.7227 76.084 75.584C96.564 55.104 125.129 48.896 153.055 47.616C180.041 46.3787 188.148 46.1227 256.5 46.1227ZM256.5 0C186.975 0 178.249 0.298667 150.943 1.536C111.369 3.34933 72.0733 14.3573 43.4653 42.9653C14.7507 71.68 3.84933 110.891 2.036 150.443C0.798667 177.749 0.5 186.475 0.5 256C0.5 325.525 0.798667 334.251 2.036 361.557C3.84933 401.088 14.9 440.491 43.4653 469.035C72.1587 497.728 111.433 508.651 150.943 510.464C178.249 511.701 186.975 512 256.5 512C326.025 512 334.751 511.701 362.057 510.464C401.609 508.651 440.948 497.621 469.535 469.035C498.271 440.299 509.151 401.109 510.964 361.557C512.201 334.251 512.5 325.525 512.5 256C512.5 186.475 512.201 177.749 510.964 150.443C509.151 110.869 498.121 71.552 469.535 42.9653C440.884 14.3147 401.503 3.328 362.057 1.536C334.751 0.298667 326.025 0 256.5 0Z" fill="black"/>
<path d="M256.5 124.545C183.903 124.545 125.044 183.404 125.044 256.001C125.044 328.598 183.903 387.457 256.5 387.457C329.097 387.457 387.956 328.598 387.956 256.001C387.956 183.404 329.097 124.545 256.5 124.545ZM256.5 341.334C209.375 341.334 171.167 303.126 171.167 256.001C171.167 208.876 209.375 170.668 256.5 170.668C303.625 170.668 341.833 208.876 341.833 256.001C341.833 303.126 303.625 341.334 256.5 341.334Z" fill="black"/>
<path d="M393.161 150.059C410.128 150.059 423.881 136.305 423.881 119.339C423.881 102.372 410.128 88.6191 393.161 88.6191C376.195 88.6191 362.441 102.372 362.441 119.339C362.441 136.305 376.195 150.059 393.161 150.059Z" fill="black"/>
</g>
</g>
<defs>
<clipPath id="clip0_213_2">
<rect width="512" height="512" fill="white" transform="translate(0.5)"/>
</clipPath>
</defs>
</svg>
