<svg width="512" height="512" viewBox="0 0 512 512" fill="none" xmlns="http://www.w3.org/2000/svg">
<g clip-path="url(#clip0_213_14)">
<path d="M479.253 210.475C433.621 210.475 391.317 195.883 356.8 171.093V349.973C356.8 439.317 284.117 511.979 194.794 511.979C160.277 511.979 128.256 501.099 101.952 482.624C60.1811 453.291 32.7891 404.779 32.7891 349.973C32.7891 260.629 105.472 187.947 194.816 187.947C202.24 187.947 209.493 188.565 216.64 189.525V210.368V279.381C209.728 277.227 202.432 275.968 194.816 275.968C154.026 275.968 120.832 309.163 120.832 349.973C120.832 378.389 136.96 403.072 160.512 415.467C170.773 420.864 182.442 423.957 194.837 423.957C234.688 423.957 267.2 392.256 268.693 352.747L268.757 0H356.778C356.778 7.63733 357.525 15.0827 358.848 22.336C365.056 55.872 384.96 84.6507 412.544 102.635C431.744 115.157 454.656 122.475 479.232 122.475L479.253 210.475Z" fill="black"/>
</g>
<defs>
<clipPath id="clip0_213_14">
<rect width="512" height="512" fill="white"/>
</clipPath>
</defs>
</svg>
