<svg width="702" height="494" viewBox="0 0 702 494" fill="none" xmlns="http://www.w3.org/2000/svg">
<g clip-path="url(#clip0_213_10)">
<path d="M686.837 77.1327C678.776 46.7763 655.03 22.8477 624.857 14.7253C570.209 4.76837e-06 351 0 351 0C351 0 131.791 4.76837e-06 77.1135 14.7253C46.9705 22.8477 23.2241 46.7471 15.1626 77.1327C0.5 132.177 0.5 247 0.5 247C0.5 247 0.5 361.823 15.1626 416.867C23.2241 447.224 46.9705 471.152 77.1427 479.275C131.791 494 351 494 351 494C351 494 570.209 494 624.887 479.275C655.03 471.152 678.776 447.253 686.867 416.867C701.5 361.823 701.5 247 701.5 247C701.5 247 701.5 132.177 686.837 77.1327ZM279.323 351.275V142.725L462.517 247L279.323 351.275Z" fill="black"/>
</g>
<defs>
<clipPath id="clip0_213_10">
<rect width="701" height="494" fill="white" transform="translate(0.5)"/>
</clipPath>
</defs>
</svg>
